<svg width="32" height="32" xmlns="http://www.w3.org/2000/svg">
  <g>
    <title>background</title>
    <rect x="-1" y="-1" width="7.333286" height="7.333286" id="canvas_background" fill="none"/>
  </g>
  <g>
    <title>Layer 1</title>
    <path d="m28.681,7.159c-0.694,-0.947 -1.662,-2.053 -2.724,-3.116s-2.169,-2.03 -3.116,-2.724c-1.612,-1.182 -2.393,-1.319 -2.841,-1.319l-15.5,0c-1.378,0 -2.5,1.121 -2.5,2.5l0,27c0,1.378 1.122,2.5 2.5,2.5l23,0c1.378,0 2.5,-1.122 2.5,-2.5l0,-19.5c0,-0.448 -0.137,-1.23 -1.319,-2.841zm-4.138,-1.702c0.959,0.959 1.712,1.825 2.268,2.543l-4.811,0l0,-4.811c0.718,0.556 1.584,1.309 2.543,2.268zm3.457,24.043c0,0.271 -0.229,0.5 -0.5,0.5l-23,0c-0.271,0 -0.5,-0.229 -0.5,-0.5l0,-27c0,-0.271 0.229,-0.5 0.5,-0.5c0,0 15.499,0 15.5,0l0,7c0,0.552 0.448,1 1,1l7,0l0,19.5z" id="svg_1"/>
    <text fill="#000000" stroke-width="0" x="17.619168" y="10.870475" id="svg_6" font-size="24" font-family="Helvetica, Arial, sans-serif" text-anchor="start" xml:space="preserve" stroke="#000"/>
  <text fill="#000000" stroke="null" stroke-width="0" stroke-opacity="null" fill-opacity="null" x="8.583332" y="12.900003" id="svg_7" font-size="12" font-family="Helvetica, Arial, sans-serif" text-anchor="start" xml:space="preserve">A</text>
    <path stroke="null" id="svg_5" d="m21.41667,17.733329l-2.875001,0l0,-1.600001c0,-0.44 -0.43125,-0.8 -0.958334,-0.8l-3.833335,0c-0.527084,0 -0.958334,0.36 -0.958334,0.8l0,1.600001l-2.875001,0c-1.054167,0 -1.916667,0.72 -1.916667,1.600001l0,6.400004c0,0.880001 0.8625,1.600001 1.916667,1.600001l11.500005,0c1.054167,0 1.916667,-0.72 1.916667,-1.600001l0,-6.400004c0,-0.880001 -0.8625,-1.600001 -1.916667,-1.600001zm-7.66667,-1.600001l3.833335,0l0,1.600001l-3.833335,0l0,-1.600001zm5.750002,7.200004l-2.875001,0l0,2.400001l-1.916667,0l0,-2.400001l-2.875001,0l0,-1.600001l2.875001,0l0,-2.400001l1.916667,0l0,2.400001l2.875001,0l0,1.600001z"/>
  </g>
</svg>