<?xml version="1.0" encoding="UTF-8" standalone="no"?>
<svg width="25px" height="25px" viewBox="0 0 25 25" version="1.1" xmlns="http://www.w3.org/2000/svg" xmlns:xlink="http://www.w3.org/1999/xlink" xmlns:sketch="http://www.bohemiancoding.com/sketch/ns">
    <!-- Generator: Sketch 3.5.1 (25234) - http://www.bohemiancoding.com/sketch -->
    <title>Artboard 1</title>
    <desc>Created with Sketch.</desc>
    <defs></defs>
    <g id="Page-1" stroke="none" stroke-width="1" fill="none" fill-rule="evenodd" sketch:type="MSPage">
        <g id="Artboard-1" sketch:type="MSArtboardGroup" fill="#FFFFFF">
            <path d="M4.91824339,6.62730629 C3.83260843,6.39964569 -2.42833739,4.15512593 -6.00608532,4.15512593 C-9.58383325,4.15512593 -16,4.59222015 -16,4.59222015 C-16,4.59222015 -11.4310233,3.89529711 -6.42210879,3.66998366 C-1.80643852,3.46235931 2.19773646,5.56504645 4.91824339,5.96322056 C7.63875032,6.36139468 8.30463315,6.7871874 9.2463309,5.96322062 C10.1880287,5.13925385 10.2112373,4.52248383 11.3266325,3.66998367 C12.727603,2.59921744 14.4599041,1.76429789 14.4599046,2.06027811 C14.4599051,2.35625832 13.1177367,7.02319331 13.5823902,7.40606481 C15.1583471,8.70464318 16.9273409,11.0330516 17.376116,11.8329508 C17.824891,12.63285 16.9486247,12.1316502 17.0655907,13.614541 C17.0880471,13.8992428 16.8745884,14.7762794 17.0655897,15.1223715 C18.1432975,17.0751654 19.5510083,17.9874774 18.9565596,18.7399905 C18.6754755,19.0958152 16.3531417,21.7280778 14.8257537,22.5684382 C13.1229565,23.5053078 12.2031412,22.6349371 11.9682769,22.5684382 C11.9384662,22.5599977 13.1709931,22.8738405 14.4599046,22.2954832 C15.9419281,21.6304731 17.535701,19.9822484 17.9901324,18.5773464 C18.1163224,18.1872223 17.2345471,16.7930636 16.8147777,15.5403116 C16.625258,14.9747125 16.6208098,14.3164794 16.6892674,13.6145407 C16.7621464,12.8672673 16.7564068,12.1026653 16.5371968,11.6794469 C16.1120755,10.8586855 13.249454,7.66675196 13.0966859,7.63083002 C12.7455526,7.54826443 13.4898521,3.14133074 13.5823892,3.06030304 C13.6749263,2.97927534 12.5599158,3.38903934 11.6634979,4.15512588 C10.5348584,5.11967096 9.62687317,6.44949971 9.24632995,6.62730648 C8.86578672,6.80511324 7.69597253,7.20980362 4.91824339,6.62730629 Z" id="Rectangle-1" sketch:type="MSShapeGroup"></path>
        </g>
    </g>
</svg>