<?xml version="1.0" encoding="UTF-8"?>
<svg width="316px" height="412px" viewBox="0 0 316 412" version="1.1" xmlns="http://www.w3.org/2000/svg" xmlns:xlink="http://www.w3.org/1999/xlink">
    <!-- Generator: Sketch 43.2 (39069) - http://www.bohemiancoding.com/sketch -->
    <title>Article-Marketing</title>
    <desc>Created with Sketch.</desc>
    <defs></defs>
    <g id="Page-1" stroke="none" stroke-width="1" fill="none" fill-rule="evenodd">
        <g id="Article-Marketing" fill-rule="nonzero" fill="#000000">
            <g id="Group">
                <path d="M315.413,11.66 C315.413,5.306 310.112,0 303.755,0 L12.247,0 C5.893,0 0.586,5.306 0.586,11.66 L0.586,400.342 C0.586,406.699 5.892,412 12.247,412 L303.755,412 C307.18,412 309.795,410.753 311.666,408.877 C311.776,408.781 311.883,408.671 311.988,408.57 C312.084,408.469 312.204,408.353 312.29,408.248 C314.166,406.382 315.413,403.772 315.413,400.342 L315.413,11.66 Z M292.092,388.679 L23.905,388.679 L23.905,23.321 L292.092,23.321 L292.092,388.679 Z" id="Shape"></path>
                <rect id="Rectangle-path" x="55.687" y="67.981" width="87.892" height="16.479"></rect>
                <rect id="Rectangle-path" x="173.788" y="65.919" width="88.581" height="82.4"></rect>
                <rect id="Rectangle-path" x="55.687" y="100.941" width="87.892" height="16.479"></rect>
                <rect id="Rectangle-path" x="55.687" y="133.9" width="87.892" height="16.481"></rect>
                <rect id="Rectangle-path" x="55.687" y="166.86" width="206.691" height="16.481"></rect>
                <rect id="Rectangle-path" x="55.687" y="208.062" width="206.691" height="16.477"></rect>
                <path d="M215.883,298.766 L206.9,298.766 C205.734,294.259 203.923,289.929 201.599,285.996 L207.971,279.614 C209.903,277.682 209.903,274.544 207.971,272.613 L197.486,262.117 C195.554,260.185 192.426,260.185 190.495,262.117 L184.088,268.489 C180.16,266.165 175.835,264.354 171.328,263.182 L171.328,254.201 C171.328,251.474 169.176,249.262 166.435,249.262 L151.606,249.262 C148.873,249.262 146.717,251.475 146.717,254.201 L146.717,263.182 C142.218,264.354 137.885,266.16 133.955,268.484 L127.565,262.117 C125.633,260.185 122.498,260.185 120.566,262.117 L110.077,272.602 C108.146,274.534 108.146,277.666 110.077,279.598 L116.447,285.995 C114.118,289.928 112.316,294.258 111.144,298.765 L102.164,298.765 C99.433,298.765 97.22,300.912 97.22,303.654 L97.22,318.485 C97.22,321.215 99.433,323.374 102.164,323.374 L111.144,323.374 C112.316,327.88 114.119,332.205 116.447,336.144 L110.077,342.526 C108.146,344.457 108.146,347.595 110.077,349.527 L120.563,360.012 C122.494,361.949 125.625,361.949 127.556,360.018 L133.953,353.651 C137.883,355.969 142.216,357.78 146.715,358.952 L146.715,367.934 C146.715,370.664 148.867,372.877 151.604,372.877 L166.433,372.877 C169.168,372.877 171.326,370.664 171.326,367.934 L171.326,358.952 C175.833,357.78 180.158,355.97 184.096,353.651 L190.479,360.018 C192.41,361.949 195.548,361.949 197.479,360.018 L207.96,349.532 C209.901,347.6 209.901,344.472 207.97,342.541 L201.598,336.139 C203.922,332.206 205.733,327.881 206.899,323.375 L215.881,323.375 C218.617,323.375 220.83,321.222 220.83,318.486 L220.83,303.655 C220.832,300.913 218.619,298.766 215.883,298.766 Z M159.029,335.781 C145.372,335.781 134.308,324.706 134.308,311.061 C134.308,297.402 145.372,286.337 159.029,286.337 C172.676,286.337 183.751,297.401 183.751,311.061 C183.751,324.706 172.677,335.781 159.029,335.781 Z" id="Shape"></path>
            </g>
        </g>
    </g>
</svg>