<?xml version="1.0" standalone="no"?>
<!DOCTYPE svg PUBLIC "-//W3C//DTD SVG 20010904//EN"
 "http://www.w3.org/TR/2001/REC-SVG-20010904/DTD/svg10.dtd">
<svg version="1.0" xmlns="http://www.w3.org/2000/svg"
 width="948.000000pt" height="948.000000pt" viewBox="0 0 948.000000 948.000000"
 preserveAspectRatio="xMidYMid meet">
<metadata>
Created by potrace 1.11, written by Peter Selinger 2001-2013
</metadata>
<g transform="translate(0.000000,948.000000) scale(0.100000,-0.100000)"
fill="#000000" stroke="none">
<path d="M1077 9463 c-1 -1 -31 -3 -67 -6 -36 -2 -72 -6 -80 -9 -8 -3 -34 -11
-57 -17 -42 -12 -129 -66 -170 -107 -30 -30 -81 -117 -88 -149 -3 -14 -8 -37
-11 -52 -9 -44 -10 -174 -2 -180 5 -2 6 -9 2 -14 -9 -15 -11 -99 -2 -99 4 0 5
-6 2 -14 -9 -24 -11 -107 -2 -112 5 -3 6 -10 2 -15 -9 -15 -11 -99 -2 -99 4 0
5 -6 2 -14 -9 -24 -11 -107 -2 -112 5 -3 6 -10 2 -15 -9 -16 -11 -110 -2 -115
5 -3 5 -10 2 -16 -10 -15 -11 -809 -1 -815 4 -2 5 -9 1 -14 -9 -15 -11 -99 -2
-99 4 0 5 -6 2 -14 -9 -24 -11 -107 -2 -112 5 -3 6 -10 2 -15 -9 -15 -11 -99
-2 -99 4 0 5 -6 2 -14 -9 -24 -11 -107 -2 -112 5 -3 6 -10 2 -15 -9 -15 -11
-99 -2 -99 4 0 5 -6 2 -14 -9 -24 -11 -107 -2 -112 5 -3 6 -10 2 -15 -9 -15
-11 -99 -2 -99 4 0 5 -6 2 -14 -9 -24 -11 -107 -2 -112 5 -3 6 -10 2 -15 -9
-16 -11 -110 -2 -115 5 -3 5 -10 2 -16 -10 -15 -11 -809 -1 -815 4 -2 5 -9 1
-14 -9 -15 -11 -99 -2 -99 4 0 5 -6 2 -14 -9 -24 -11 -107 -2 -112 5 -3 6 -10
2 -15 -9 -15 -11 -99 -2 -99 4 0 5 -6 2 -14 -9 -24 -11 -107 -2 -112 5 -3 6
-10 2 -15 -9 -15 -11 -99 -2 -99 4 0 5 -6 2 -14 -9 -24 -11 -107 -2 -112 5 -3
6 -10 2 -15 -9 -15 -11 -99 -2 -99 4 0 5 -6 2 -14 -9 -24 -11 -107 -2 -112 5
-3 6 -10 2 -15 -9 -16 -11 -110 -2 -115 5 -3 5 -10 2 -16 -10 -15 -11 -809 -1
-815 4 -2 5 -9 1 -14 -9 -15 -11 -99 -2 -99 4 0 5 -6 2 -14 -9 -24 -11 -107
-2 -112 5 -3 6 -10 2 -15 -9 -15 -11 -99 -2 -99 4 0 5 -6 2 -14 -9 -24 -11
-107 -2 -112 5 -3 6 -10 2 -15 -9 -15 -11 -99 -2 -99 4 0 5 -6 2 -14 -9 -24
-11 -107 -2 -112 5 -3 6 -10 2 -15 -9 -15 -11 -99 -2 -99 4 0 5 -6 2 -14 -9
-24 -11 -107 -2 -112 5 -3 6 -10 2 -15 -9 -16 -11 -110 -2 -115 5 -3 5 -10 2
-16 -10 -15 -11 -809 -1 -815 4 -2 5 -9 1 -14 -9 -15 -11 -99 -2 -99 4 0 5 -6
2 -14 -9 -24 -11 -107 -2 -112 5 -3 6 -10 2 -15 -9 -15 -11 -99 -2 -99 4 0 5
-6 2 -14 -9 -24 -11 -107 -2 -112 5 -3 6 -10 2 -15 -9 -15 -11 -99 -2 -99 4 0
5 -6 2 -14 -9 -24 -11 -107 -2 -112 5 -3 6 -10 2 -15 -9 -15 -11 -99 -2 -99 4
0 5 -6 2 -14 -9 -24 -11 -107 -2 -112 5 -3 6 -10 2 -15 -9 -16 -11 -110 -2
-115 5 -3 5 -10 2 -16 -11 -17 -5 -274 6 -298 1 -3 3 -9 4 -15 0 -5 14 -36 29
-67 30 -62 105 -137 170 -170 104 -53 66 -51 1012 -53 488 -1 901 3 929 8 69
12 133 44 183 90 40 38 90 122 96 162 1 11 5 25 8 30 23 41 -5 250 -37 276 -8
6 -14 17 -14 24 0 6 -15 25 -32 41 -39 34 -98 76 -98 68 0 -3 -12 2 -27 10
-54 30 -129 33 -650 34 -290 1 -534 1 -541 2 -9 0 -10 5 -4 17 5 9 6 29 2 44
-5 16 -4 31 2 37 6 6 6 12 0 16 -6 3 -7 20 -2 40 4 19 6 37 4 39 -10 9 -12 47
-4 52 5 3 5 18 1 33 -4 15 -5 38 -1 52 4 14 3 35 -1 47 -5 12 -4 25 0 27 5 3
5 23 1 45 -4 21 -3 46 2 55 6 10 5 16 -1 16 -6 0 -6 11 -1 29 4 15 5 33 1 40
-7 11 -5 75 3 97 2 6 0 17 -4 25 -5 7 -5 18 1 25 6 8 6 14 1 18 -6 3 -7 20 -2
40 4 19 6 37 4 39 -10 9 -12 47 -4 52 5 3 5 18 1 33 -4 15 -5 38 -1 52 3 13 3
45 0 71 -3 25 -3 57 1 71 4 14 3 31 -1 38 -5 8 -5 23 0 35 5 12 5 28 0 35 -4
7 -4 25 0 41 5 15 6 30 3 33 -8 8 -10 67 -2 71 3 3 3 22 -1 44 -4 21 -3 46 2
55 6 10 5 16 -1 16 -6 0 -6 11 -1 29 4 15 5 33 1 40 -7 11 -5 75 3 97 2 6 0
17 -4 25 -5 7 -5 18 1 25 6 8 6 14 1 18 -6 3 -7 20 -2 40 4 19 6 37 4 39 -10
9 -12 47 -4 52 5 3 5 18 1 33 -4 15 -5 38 -1 52 3 13 3 45 0 71 -3 25 -3 57 1
71 4 14 3 31 -1 38 -5 8 -5 23 0 35 5 12 5 28 0 35 -4 7 -4 25 0 41 5 15 6 30
3 33 -3 3 -5 38 -4 78 1 40 2 80 1 88 0 8 0 24 0 35 1 11 1 27 0 35 0 8 0 26
1 40 1 31 1 37 -4 78 -2 18 0 35 4 37 3 3 3 22 -1 44 -4 21 -3 46 2 55 6 10 5
16 -1 16 -6 0 -6 11 -1 29 4 15 5 33 1 40 -7 11 -5 75 3 97 2 6 0 17 -4 25 -5
7 -5 18 1 25 6 8 6 14 1 18 -6 3 -7 20 -2 40 4 19 6 37 4 39 -10 9 -12 47 -4
52 5 3 5 18 1 33 -4 15 -5 38 -1 52 3 13 3 45 0 71 -3 25 -3 57 1 71 4 14 3
31 -1 38 -5 8 -5 23 0 35 5 12 5 28 0 35 -4 7 -4 25 0 41 5 15 6 30 3 33 -8 8
-10 67 -2 71 3 3 3 22 -1 44 -4 21 -3 46 2 55 6 10 5 16 -1 16 -6 0 -6 11 -1
29 4 15 5 33 1 40 -7 11 -5 75 3 97 2 6 0 17 -4 25 -5 7 -5 18 1 25 6 8 6 14
1 18 -6 3 -7 20 -2 40 4 19 6 37 4 39 -10 9 -12 47 -4 52 5 3 5 18 1 33 -4 15
-5 38 -1 52 4 14 3 35 -1 47 -5 12 -4 25 0 27 5 3 5 23 1 45 -4 21 -3 46 2 55
6 10 5 16 -1 16 -6 0 -6 11 -1 29 4 15 5 33 1 40 -7 11 -5 75 3 97 2 6 0 17
-4 25 -5 7 -5 18 1 25 6 8 6 14 1 18 -6 3 -7 20 -2 40 4 19 6 37 4 39 -10 9
-12 47 -4 52 5 3 5 18 0 34 -4 16 -6 32 -3 34 5 5 5 91 0 142 -1 17 1 42 4 56
4 15 3 32 -1 40 -5 7 -4 21 1 31 6 12 6 18 0 18 -7 0 -7 8 -2 23 5 13 6 29 1
36 -4 7 -4 28 0 46 4 18 4 38 1 44 -7 11 -5 76 3 97 2 6 0 17 -4 24 -5 8 -4
22 1 32 7 12 6 18 -1 18 -7 0 -8 6 -1 19 6 10 8 20 6 23 -3 2 -5 38 -5 79 0
41 0 83 0 94 0 11 0 29 0 40 1 11 1 27 0 35 0 8 0 26 1 40 1 31 1 37 -4 78 -2
18 0 35 4 37 3 3 3 22 -1 44 -4 21 -3 46 2 55 6 10 5 16 -1 16 -6 0 -6 11 -1
29 4 15 5 33 1 40 -7 11 -5 75 3 97 2 6 0 17 -4 25 -5 7 -5 18 1 25 6 8 6 14
1 18 -6 3 -7 20 -2 40 4 19 6 37 4 39 -10 9 -12 47 -4 52 5 3 5 18 1 33 -4 15
-5 38 -1 52 3 13 3 45 0 71 -3 25 -3 57 1 71 4 14 3 31 -1 38 -5 8 -5 23 0 35
5 12 5 28 0 35 -4 7 -4 25 0 40 4 15 4 33 0 40 -4 6 -4 27 0 45 4 18 4 38 1
44 -7 11 -5 76 3 97 2 6 0 17 -4 24 -5 8 -4 22 1 32 6 12 6 18 0 18 -7 0 -7 8
-2 23 5 13 6 29 1 36 -4 7 -4 28 0 46 4 18 4 38 1 44 -7 11 -5 76 3 97 2 6 0
17 -4 24 -5 8 -4 22 1 32 7 12 6 18 -1 18 -7 0 -8 6 -2 16 5 8 6 36 2 60 -4
25 -4 47 0 49 4 3 4 22 0 44 -4 21 -3 46 2 55 6 10 5 16 -1 16 -6 0 -6 11 -1
29 4 15 5 33 1 40 -7 11 -5 75 3 97 2 6 0 17 -4 24 -5 8 -4 22 1 32 6 12 6 18
0 18 -7 0 -7 8 -2 23 5 13 6 29 2 36 -5 7 -5 27 -2 44 l7 32 539 2 c634 3 573
2 580 14 4 5 10 7 15 4 16 -10 128 54 171 97 36 38 78 108 83 142 1 6 4 16 7
21 11 20 7 164 -6 208 -48 161 -165 247 -345 256 -30 2 -58 5 -62 7 -5 3 -8 1
-8 -5 0 -6 -7 -8 -16 -4 -23 8 -224 9 -224 1 0 -4 -7 -5 -16 -1 -23 8 -224 9
-224 1 0 -4 -7 -5 -16 -1 -23 8 -224 9 -224 1 0 -4 -7 -5 -16 -1 -23 8 -224 9
-224 1 0 -4 -7 -5 -16 -1 -23 8 -224 9 -224 1 0 -4 -7 -5 -16 -1 -24 9 -224 9
-224 0 0 -5 -5 -5 -11 -2 -9 6 -88 13 -92 8z"/>
<path d="M6837 9463 c-1 0 -29 -3 -62 -6 -33 -3 -82 -13 -110 -22 -50 -17
-135 -71 -135 -86 0 -4 -6 -14 -13 -21 -48 -51 -76 -149 -71 -254 2 -60 9
-109 14 -109 1 0 3 -9 4 -21 4 -32 88 -148 100 -137 3 4 6 2 6 -4 0 -14 89
-61 129 -68 19 -3 41 -9 50 -13 9 -4 260 -7 559 -7 l542 1 0 -3968 0 -3968
-37 -1 c-21 0 -262 0 -536 -1 -368 0 -514 -4 -560 -14 -141 -29 -237 -120
-266 -251 -10 -49 -7 -195 5 -215 5 -7 9 -20 11 -28 7 -46 79 -141 135 -176
54 -34 151 -64 172 -52 9 5 16 5 16 0 0 -9 1720 -9 1755 1 11 2 40 10 65 17
109 29 223 139 263 253 18 50 19 214 19 4427 0 3368 -2 4385 -12 4420 -15 58
-54 125 -99 170 -41 41 -134 100 -157 100 -8 0 -24 4 -34 10 -10 5 -38 11 -63
13 -24 2 -49 7 -56 11 -6 4 -11 3 -11 -2 0 -5 -17 -6 -40 -2 -22 4 -40 4 -40
-1 0 -5 -7 -6 -16 -2 -23 8 -224 9 -224 1 0 -4 -7 -5 -16 -1 -23 8 -224 9
-224 1 0 -4 -7 -5 -16 -1 -23 8 -224 9 -224 1 0 -4 -7 -5 -16 -1 -23 8 -224 9
-224 1 0 -4 -7 -5 -16 -1 -23 8 -224 9 -224 1 0 -4 -7 -5 -16 -1 -24 9 -224 9
-224 0 0 -5 -5 -5 -11 -2 -9 6 -88 13 -92 8z"/>
<path d="M4790 7275 c-69 -18 -179 -47 -245 -65 -178 -48 -338 -91 -355 -95
-8 -2 -15 -4 -15 -5 0 -1 -7 -3 -15 -5 -8 -1 -35 -8 -60 -16 -25 -7 -53 -14
-63 -16 -10 -1 -93 -24 -185 -49 -92 -25 -175 -48 -184 -49 -40 -8 -150 -68
-178 -98 -59 -62 -85 -156 -66 -240 10 -41 50 -101 85 -126 90 -64 194 -68
406 -14 55 14 111 27 125 29 14 3 52 12 85 21 33 8 67 16 76 18 9 2 33 8 53
13 20 6 36 8 36 5 0 -3 7 0 15 7 8 7 15 10 15 7 0 -3 50 8 110 23 61 15 111
25 111 21 1 -3 2 -860 3 -1905 1 -1261 -2 -1900 -9 -1902 -5 -2 -210 -5 -455
-7 -245 -2 -457 -7 -472 -11 -16 -3 -38 -8 -50 -10 -111 -23 -138 -41 -172
-117 -19 -45 -23 -68 -21 -140 2 -86 13 -121 58 -181 12 -16 27 -28 34 -28 7
0 13 -4 13 -9 0 -18 114 -47 182 -47 38 1 68 -1 68 -4 0 -6 119 -3 158 4 12 2
22 0 22 -5 0 -4 14 -4 30 1 17 5 30 6 30 2 0 -4 14 -7 30 -7 17 0 30 3 30 7 0
4 11 3 25 -2 15 -6 26 -6 30 1 4 5 11 6 17 3 14 -9 102 -9 116 0 6 3 13 2 17
-3 4 -7 15 -7 30 -1 14 5 25 6 25 2 0 -5 23 -6 50 -2 28 4 50 4 50 1 0 -3 41
-6 90 -6 50 0 90 4 90 8 0 5 5 5 11 1 14 -8 265 -7 279 1 6 3 10 2 10 -4 0 -6
11 -6 30 -1 17 5 30 6 30 2 0 -4 14 -7 30 -7 17 0 30 3 30 7 0 4 11 3 25 -2
15 -6 27 -6 30 0 3 5 15 6 26 1 12 -4 43 -4 70 -1 27 4 49 3 49 -1 0 -4 14 -4
30 1 17 5 30 6 30 2 0 -4 14 -7 30 -7 17 0 30 3 30 7 0 4 11 3 25 -2 15 -6 26
-6 30 1 4 5 11 6 17 3 14 -9 102 -9 116 0 6 3 13 2 17 -3 4 -7 15 -7 30 -1 14
5 25 6 25 2 0 -5 23 -6 50 -2 28 4 50 4 50 0 0 -6 97 -3 117 5 7 2 15 0 18 -5
3 -6 15 -6 30 0 14 5 25 6 25 2 0 -8 93 -7 115 2 8 3 15 1 15 -5 0 -6 4 -8 9
-5 5 4 36 8 68 10 76 6 79 6 138 37 28 14 60 41 72 60 13 19 26 39 30 44 8 11
9 14 17 62 11 63 6 136 -13 195 -13 39 -85 113 -101 103 -6 -4 -10 -2 -10 3 0
5 -6 9 -12 10 -20 1 -71 10 -98 18 -14 3 -178 8 -365 11 -187 2 -387 5 -445 6
l-105 2 -3 2130 c-2 1172 -4 2146 -6 2166 -4 54 -46 131 -86 157 -47 31 -120
28 -280 -13z"/>
</g>
</svg>
