<?xml version="1.0" encoding="UTF-8"?>
<svg width="149px" height="84px" viewBox="0 0 149 84" version="1.1" xmlns="http://www.w3.org/2000/svg" xmlns:xlink="http://www.w3.org/1999/xlink">
    <!-- Generator: Sketch 41 (35326) - http://www.bohemiancoding.com/sketch -->
    <title>Group</title>
    <desc>Created with Sketch.</desc>
    <defs></defs>
    <g id="Page-1" stroke="none" stroke-width="1" fill="none" fill-rule="evenodd">
        <g id="Group">
            <path d="M95.9753014,7.4715554 C94.8343256,3.18414173 90.8919672,0 86.2387417,0 L50.9965857,0 C45.4585326,0 40.9273982,4.51022727 40.9273982,10.0227273 L40.9273982,45.1022727 C40.9273982,50.6147727 45.4585326,55.125 50.9965857,55.125 L76.7402046,55.125 C76.8397867,54.1919205 77.052607,53.2571837 77.3869776,52.338508 L91.6702052,13.0956627 C92.5264006,10.7432852 94.0608068,8.82252334 95.9753014,7.4715554 Z" id="Combined-Shape" fill="#39A5C8"></path>
            <path d="M147.943889,37.5033416 C149.829275,32.3232861 147.11399,26.5353196 141.909922,24.6411938 L108.793128,12.5876666 C103.589061,10.6935409 97.7885985,13.3820289 95.9032125,18.5620845 L83.9053013,51.5260745 C82.0199153,56.7061301 84.7352002,62.4940966 89.9392678,64.3882223 L123.056062,76.4417496 C128.260129,78.3358753 134.060592,75.6473872 135.945978,70.4673316 L147.943889,37.5033416 Z" id="Combined-Shape" fill="#78A300"></path>
            <path d="M36.4907852,20.380515 L6.83917308,31.1728192 C1.53405559,33.103724 -1.2639065,38.9217826 0.621479541,44.1018381 L12.6193907,77.0658281 C14.5047767,82.2458837 20.387916,84.9042797 25.6930335,82.9733749 L59.452872,70.6857985 C63.8751545,69.0762194 66.5552923,64.7655776 66.2327597,60.375 L48.4779131,60.375 C41.8849928,60.375 36.4907852,55.0056818 36.4907852,48.4431818 L36.4907852,20.380515 Z" id="Combined-Shape" fill="#D04522"></path>
        </g>
    </g>
</svg>