<?xml version="1.0" encoding="UTF-8"?>
<svg width="1200px" height="451px" viewBox="0 0 1200 451" version="1.1" xmlns="http://www.w3.org/2000/svg" xmlns:xlink="http://www.w3.org/1999/xlink">
    <!-- Generator: Sketch 43.2 (39069) - http://www.bohemiancoding.com/sketch -->
    <title>logo</title>
    <desc>Created with Sketch.</desc>
    <defs></defs>
    <g id="Page-1" stroke="none" stroke-width="1" fill="none" fill-rule="evenodd">
        <g id="logo" transform="translate(-1.000000, -121.000000)">
            <path d="M1,240.44 C1,174.96 48.02,122 106.61,122 C162.502,122 206.88,170.15 211.31,231.77 L211.31,233.685 C211.31,239.933 206.434,244.267 200.675,244.267 L22.295,244.267 C24.501,295.787 61.793,334.787 106.605,334.787 C135.445,334.787 162.055,318.41 176.685,291.931 C179.797,286.161 186.461,285.204 190.896,288.076 C195.796,291.931 197.56,298.683 194.449,304.453 C175.803,336.703 143.409,357.893 106.609,357.893 C48.019,357.893 0.999,304.934 0.999,240.433 M23.616,221.663 L188.246,221.663 C181.14,177.343 146.519,145.093 106.606,145.093 C65.784,145.093 31.606,176.889 23.615,221.663" id="Shape" fill="#000000" fill-rule="nonzero"></path>
            <path d="M811.32,122 C760.03,122 718.52,165.42 718.52,218.01 L718.52,346.34 C718.52,353.081 723.644,357.903 729.696,357.903 C735.772,357.903 740.896,353.081 740.896,346.34 L740.896,218.01 C740.896,177.97 772.126,145.15 811.316,145.15 C850.476,145.15 881.716,177.97 881.716,218.01 L881.716,346.34 C881.716,353.081 886.84,357.903 892.916,357.903 C898.966,357.903 904.092,353.081 904.092,346.34 L904.092,218.01 C904.092,165.423 862.611,122 811.322,122" id="Shape" fill="#000000" fill-rule="nonzero"></path>
            <path d="M341.63,122 C290.34,122 248.83,165.42 248.83,218.01 L248.83,346.34 C248.83,353.081 253.954,357.903 260.006,357.903 C266.082,357.903 271.206,353.081 271.206,346.34 L271.206,218.01 C271.206,177.97 302.436,145.15 341.626,145.15 C380.786,145.15 412.026,177.97 412.026,218.01 L412.026,346.34 C412.026,353.081 417.15,357.903 423.226,357.903 C429.276,357.903 434.402,353.081 434.402,346.34 L434.402,218.01 C434.402,165.423 392.921,122 341.632,122 L552.101032,0.833222989" id="Shape" fill="#000000" fill-rule="nonzero"></path>
            <path d="M941.21,133.564 C941.21,126.812 946.406,122 952.567,122 C959.173,122 964.369,126.812 964.369,133.564 L964.369,346.354 C964.369,352.602 959.173,357.893 952.567,357.893 C946.406,357.893 941.21,352.602 941.21,346.354 L941.21,133.564" id="Shape" fill="#000000" fill-rule="nonzero"></path>
            <path d="M1003.06,239.48 C1003.06,174 1056.25,122 1122.75,122 C1150.291,122 1176.441,131.624 1196.85,148 C1201.598,151.376 1202.542,158.582 1198.292,163.873 C1194.464,168.206 1187.827,169.668 1182.607,165.813 C1165.978,152.334 1145.073,144.623 1122.752,144.623 C1068.612,144.623 1025.862,187.479 1025.862,239.483 C1025.862,292.417 1068.616,334.793 1122.752,334.793 C1145.073,334.793 1165.982,327.083 1182.607,314.083 C1187.827,310.228 1194.464,311.689 1198.292,316.023 C1202.543,321.314 1201.598,328.545 1195.906,332.878 C1176.443,348.272 1150.294,357.898 1122.756,357.898 C1056.266,357.898 1003.066,305.898 1003.066,239.478" id="Shape" fill="#000000" fill-rule="nonzero"></path>
            <text id="developer" fill="#D0011B" font-family="HelveticaNeue-LightItalic, Helvetica Neue" font-size="200" font-style="italic" font-weight="300">
                <tspan x="348" y="534">developer</tspan>
            </text>
            <path d="M552.752399,196.214844 L550.848102,196.507812 C550.424923,196.572917 550.050578,196.605469 549.725055,196.605469 C547.706816,196.605469 546.062952,196.035813 544.793414,194.896484 C543.523877,193.757156 542.889118,192.243499 542.889118,190.355469 C542.889118,188.792961 543.442497,187.425787 544.549274,186.253906 C545.65605,185.082025 547.251086,184.203128 549.33443,183.617188 L578.338336,175.804688 C579.054486,175.609374 579.754349,175.462891 580.437946,175.365234 C581.121543,175.267578 581.821406,175.21875 582.537555,175.21875 C583.77454,175.21875 584.751093,175.788406 585.467243,176.927734 C586.183392,178.067063 586.541461,179.613271 586.541461,181.566406 L586.541461,287.230469 L602.166461,287.230469 C607.960761,287.230469 611.63911,287.702469 613.201618,288.646484 C614.764125,289.5905 615.545368,291.36457 615.545368,293.96875 C615.545368,296.312512 614.894332,298.070307 613.592243,299.242188 C612.290153,300.414068 610.337047,301 607.732868,301 L549.33443,301 C546.73025,301 544.777145,300.414068 543.475055,299.242188 C542.172965,298.070307 541.52193,296.312512 541.52193,293.96875 C541.52193,291.36457 542.303172,289.5905 543.86568,288.646484 C545.428188,287.702469 549.106537,287.230469 554.900836,287.230469 L571.111774,287.230469 L571.111774,191.820312 L552.752399,196.214844 Z" id="[1]" fill="#D0011B"></path>
            <path d="M498.499469,338.539062 L523.929157,338.539062 C526.855604,338.539062 529.226999,339.346346 531.043414,340.960938 C532.85983,342.575529 533.768024,344.745104 533.768024,347.469727 C533.768024,350.396173 532.910285,352.742341 531.194782,354.508301 C529.479278,356.27426 527.158338,357.157227 524.231891,357.157227 L483.514118,357.157227 C480.385847,357.157227 477.762175,356.198577 475.643024,354.28125 C473.523873,352.363923 472.464313,349.992527 472.464313,347.166992 L472.464313,131.46875 C472.464313,128.643215 473.523873,126.271819 475.643024,124.354492 C477.762175,122.437165 480.385847,121.478516 483.514118,121.478516 L524.231891,121.478516 C527.158338,121.478516 529.479278,122.311027 531.194782,123.976074 C532.910285,125.641122 533.768024,127.936834 533.768024,130.863281 C533.768024,133.587904 532.85983,135.807934 531.043414,137.523438 C529.226999,139.238941 526.855604,140.09668 523.929157,140.09668 L498.499469,140.09668 L498.499469,338.539062 Z" id="Path" fill="#000000"></path>
            <path d="M653.782672,140.09668 L628.352985,140.09668 C625.325626,140.09668 622.929003,139.264168 621.163043,137.599121 C619.397084,135.934074 618.514118,133.688816 618.514118,130.863281 C618.514118,127.936834 619.346629,125.641122 621.011676,123.976074 C622.676724,122.311027 625.022892,121.478516 628.05025,121.478516 L668.616657,121.478516 C671.845839,121.478516 674.519966,122.437165 676.639118,124.354492 C678.758269,126.271819 679.817829,128.643215 679.817829,131.46875 L679.817829,347.166992 C679.817829,349.992527 678.758269,352.363923 676.639118,354.28125 C674.519966,356.198577 671.845839,357.157227 668.616657,357.157227 L628.05025,357.157227 C625.123803,357.157227 622.802863,356.27426 621.08736,354.508301 C619.371856,352.742341 618.514118,350.396173 618.514118,347.469727 C618.514118,344.644192 619.397084,342.449389 621.163043,340.885254 C622.929003,339.321118 625.325626,338.539062 628.352985,338.539062 L653.782672,338.539062 L653.782672,140.09668 Z" id="Path" fill="#000000"></path>
        </g>
    </g>
</svg>