<?xml version="1.0" encoding="UTF-8"?>
<svg width="1420px" height="432px" viewBox="0 0 1420 432" version="1.1" xmlns="http://www.w3.org/2000/svg" xmlns:xlink="http://www.w3.org/1999/xlink">
    <!-- Generator: Sketch 39.1 (31720) - http://www.bohemiancoding.com/sketch -->
    <title>Group</title>
    <desc>Created with Sketch.</desc>
    <defs></defs>
    <g id="Page-1" stroke="none" stroke-width="1" fill="none" fill-rule="evenodd">
        <g id="Group" transform="translate(-1.000000, 0.000000)">
            <g>
                <path d="M1,118.44 C1,52.96 48.02,0 106.61,0 C162.502,0 206.88,48.15 211.31,109.77 L211.31,111.685 C211.31,117.933 206.434,122.267 200.675,122.267 L22.295,122.267 C24.501,173.787 61.793,212.787 106.605,212.787 C135.445,212.787 162.055,196.41 176.685,169.931 C179.797,164.161 186.461,163.204 190.896,166.076 C195.796,169.931 197.56,176.683 194.449,182.453 C175.803,214.703 143.409,235.893 106.609,235.893 C48.019,235.893 0.999,182.934 0.999,118.433 M23.616,99.663 L188.246,99.663 C181.14,55.343 146.519,23.093 106.606,23.093 C65.784,23.093 31.606,54.889 23.615,99.663" id="Shape" fill="#000000"></path>
                <path d="M811.32,0 C760.03,0 718.52,43.42 718.52,96.01 L718.52,224.34 C718.52,231.081 723.644,235.903 729.696,235.903 C735.772,235.903 740.896,231.081 740.896,224.34 L740.896,96.01 C740.896,55.97 772.126,23.15 811.316,23.15 C850.476,23.15 881.716,55.97 881.716,96.01 L881.716,224.34 C881.716,231.081 886.84,235.903 892.916,235.903 C898.966,235.903 904.092,231.081 904.092,224.34 L904.092,96.01 C904.092,43.423 862.611,1.42108547e-14 811.322,1.42108547e-14" id="Shape" fill="#000000"></path>
                <path d="M341.63,0 C290.34,0 248.83,43.42 248.83,96.01 L248.83,224.34 C248.83,231.081 253.954,235.903 260.006,235.903 C266.082,235.903 271.206,231.081 271.206,224.34 L271.206,96.01 C271.206,55.97 302.436,23.15 341.626,23.15 C380.786,23.15 412.026,55.97 412.026,96.01 L412.026,224.34 C412.026,231.081 417.15,235.903 423.226,235.903 C429.276,235.903 434.402,231.081 434.402,224.34 L434.402,96.01 C434.402,43.423 392.921,1.42108547e-14 341.632,1.42108547e-14" id="Shape" fill="#000000"></path>
                <path d="M941.21,11.564 C941.21,4.812 946.406,0 952.567,0 C959.173,0 964.369,4.812 964.369,11.564 L964.369,224.354 C964.369,230.602 959.173,235.893 952.567,235.893 C946.406,235.893 941.21,230.602 941.21,224.354 L941.21,11.564" id="Shape" fill="#000000"></path>
                <path d="M1003.06,117.48 C1003.06,52 1056.25,0 1122.75,0 C1150.291,0 1176.441,9.624 1196.85,26 C1201.598,29.376 1202.542,36.582 1198.292,41.873 C1194.464,46.206 1187.827,47.668 1182.607,43.813 C1165.978,30.334 1145.073,22.623 1122.752,22.623 C1068.612,22.623 1025.862,65.479 1025.862,117.483 C1025.862,170.417 1068.616,212.793 1122.752,212.793 C1145.073,212.793 1165.982,205.083 1182.607,192.083 C1187.827,188.228 1194.464,189.689 1198.292,194.023 C1202.543,199.314 1201.598,206.545 1195.906,210.878 C1176.443,226.272 1150.294,235.898 1122.756,235.898 C1056.266,235.898 1003.066,183.898 1003.066,117.478" id="Shape" fill="#000000"></path>
                <path d="M683,118 C683,52.83 635.318,0 576.5,0 C517.682,0 470,52.83 470,118 L492,118 C492.243,66.59 529.982,25 576.5,25 C623.017,25 660.76,66.591 661,118 L683,118" id="Shape" fill="#000000"></path>
                <path d="M682.996,118 C682.996,183.17 635.314,236 576.496,236 C517.678,236 469.996,183.17 469.996,118 L491.996,118 C491.995,118.167 491.995,118.333 491.995,118.5 C491.995,170.139 529.827,212 576.495,212 C623.163,212 660.995,170.139 660.995,118.5 C660.995,118.333 660.995,118.167 660.994,118 L682.994,118" id="Shape" fill="#000000"></path>
                <path d="M1276.35,394.6 C1276.35,383.6 1269.85,372.7 1257.75,372.7 C1252.15,372.7 1244.85,375.7 1242.15,380.9 C1243.95,371.2 1245.65,361.5 1247.35,351.8 L1242.35,351.8 L1229.55,424 L1233.95,424 C1234.75,420.8 1235.85,417.2 1236.45,414 C1236.75,415 1237.65,416.7 1237.95,417.2 C1241.05,422.1 1246.65,425.3 1252.55,425.3 C1269.35,425.3 1276.35,409.2 1276.35,394.6 M1271.35,395.1 C1271.35,406.1 1266.45,420.4 1253.25,420.4 C1243.85,420.4 1238.45,412.8 1238.45,403.9 C1238.45,395.6 1240.75,386.1 1247.65,380.8 C1250.35,378.7 1253.45,377.5 1256.85,377.5 C1266.75,377.5 1271.35,386.2 1271.35,395.1 M1329.75,393.6 C1329.75,387.3 1327.75,381.9 1323.95,378.1 C1320.75,374.9 1316.25,372.7 1310.55,372.7 C1303.45,372.7 1298.25,375.6 1294.45,379.4 C1288.25,385.7 1285.75,394.6 1285.75,403.4 C1285.75,410.4 1287.75,415.6 1291.55,419.6 C1294.85,423.1 1299.45,425.3 1305.45,425.3 C1311.05,425.3 1316.55,423.2 1320.65,419.3 C1322.85,417.2 1325.55,413.3 1326.15,410.3 L1320.85,410.3 C1318.65,416.1 1312.35,420.4 1305.95,420.4 C1301.25,420.4 1297.65,418.9 1295.15,416.3 C1292.15,413.1 1290.65,408.4 1290.65,403.1 C1290.65,402.2 1290.65,401.2 1290.75,400.2 L1328.95,400.2 C1329.45,397.3 1329.75,396.5 1329.75,393.6 M1324.75,393.5 C1324.75,394.2 1324.75,394.9 1324.65,395.6 L1291.45,395.6 C1292.35,391.2 1294.25,386.9 1296.85,383.9 C1299.95,380.4 1304.15,377.5 1309.95,377.5 C1319.45,377.5 1324.75,384.5 1324.75,393.5 M1370.45,374 L1354.95,374 L1357.65,358.8 L1352.45,360.2 L1349.95,374 L1339.95,374 L1339.15,378.6 L1349.15,378.6 L1343.55,410.1 C1343.25,411.5 1343.15,412.9 1343.15,414.4 C1343.15,421.3 1348.15,424.7 1354.55,424.7 C1357.45,424.7 1361.45,423.6 1363.65,422.4 L1364.55,417.6 C1362.25,418.6 1358.25,420 1355.35,420 C1351.05,420 1348.25,418.2 1348.25,413.6 C1348.25,412.4 1348.45,411.1 1348.65,409.9 L1354.15,378.6 L1369.65,378.6 L1370.45,374 M1420.05,374 L1415.65,374 L1413.25,382.5 C1411.85,378.5 1406.55,372.7 1398.55,372.7 C1392.25,372.7 1386.75,375.3 1382.65,379.4 C1376.55,385.7 1373.65,395.3 1373.65,404.2 C1373.65,409.4 1374.75,414.1 1377.35,417.8 C1380.45,422.3 1385.85,425.3 1391.85,425.3 C1398.75,425.3 1405.45,420.8 1407.95,415.4 L1407.05,424 L1411.15,424 L1420.05,374 M1411.05,394 C1411.05,401.1 1408.35,410.1 1402.85,415.6 C1400.05,418.4 1396.55,420.4 1392.35,420.4 C1386.85,420.4 1383.25,418 1381.15,414.4 C1379.25,411.2 1378.65,407.9 1378.65,403.7 C1378.65,396 1381.25,387.5 1386.25,382.5 C1389.15,379.5 1393.65,377.6 1397.85,377.6 C1402.85,377.6 1406.05,379.5 1408.25,382.5 C1410.55,385.7 1411.05,389.3 1411.05,394" id="Shape" fill="#000000"></path>
                <text id="docs" font-family="HelveticaNeue-LightItalic, Helvetica Neue" font-size="200" font-style="italic" font-weight="300" fill="#39A5C8">
                    <tspan x="782" y="418">docs</tspan>
                    <tspan x="1208" y="418" font-family="Verdana-Bold, Verdana" font-weight="bold"> </tspan>
                </text>
            </g>
        </g>
    </g>
</svg>