<?xml version="1.0" encoding="UTF-8"?>
<svg width="1200px" height="451px" viewBox="0 0 1200 451" version="1.1" xmlns="http://www.w3.org/2000/svg" xmlns:xlink="http://www.w3.org/1999/xlink">
    <!-- Generator: Sketch 43.2 (39069) - http://www.bohemiancoding.com/sketch -->
    <title>logo</title>
    <desc>Created with Sketch.</desc>
    <defs></defs>
    <g id="Page-1" stroke="none" stroke-width="1" fill="none" fill-rule="evenodd">
        <g id="logo" transform="translate(-1.000000, -121.000000)">
            <path d="M1,240.44 C1,174.96 48.02,122 106.61,122 C162.502,122 206.88,170.15 211.31,231.77 L211.31,233.685 C211.31,239.933 206.434,244.267 200.675,244.267 L22.295,244.267 C24.501,295.787 61.793,334.787 106.605,334.787 C135.445,334.787 162.055,318.41 176.685,291.931 C179.797,286.161 186.461,285.204 190.896,288.076 C195.796,291.931 197.56,298.683 194.449,304.453 C175.803,336.703 143.409,357.893 106.609,357.893 C48.019,357.893 0.999,304.934 0.999,240.433 M23.616,221.663 L188.246,221.663 C181.14,177.343 146.519,145.093 106.606,145.093 C65.784,145.093 31.606,176.889 23.615,221.663" id="Shape" fill="#000000" fill-rule="nonzero"></path>
            <path d="M811.32,122 C760.03,122 718.52,165.42 718.52,218.01 L718.52,346.34 C718.52,353.081 723.644,357.903 729.696,357.903 C735.772,357.903 740.896,353.081 740.896,346.34 L740.896,218.01 C740.896,177.97 772.126,145.15 811.316,145.15 C850.476,145.15 881.716,177.97 881.716,218.01 L881.716,346.34 C881.716,353.081 886.84,357.903 892.916,357.903 C898.966,357.903 904.092,353.081 904.092,346.34 L904.092,218.01 C904.092,165.423 862.611,122 811.322,122" id="Shape" fill="#000000" fill-rule="nonzero"></path>
            <path d="M341.63,122 C290.34,122 248.83,165.42 248.83,218.01 L248.83,346.34 C248.83,353.081 253.954,357.903 260.006,357.903 C266.082,357.903 271.206,353.081 271.206,346.34 L271.206,218.01 C271.206,177.97 302.436,145.15 341.626,145.15 C380.786,145.15 412.026,177.97 412.026,218.01 L412.026,346.34 C412.026,353.081 417.15,357.903 423.226,357.903 C429.276,357.903 434.402,353.081 434.402,346.34 L434.402,218.01 C434.402,165.423 392.921,122 341.632,122 L552.101032,0.833222989" id="Shape" fill="#000000" fill-rule="nonzero"></path>
            <path d="M941.21,133.564 C941.21,126.812 946.406,122 952.567,122 C959.173,122 964.369,126.812 964.369,133.564 L964.369,346.354 C964.369,352.602 959.173,357.893 952.567,357.893 C946.406,357.893 941.21,352.602 941.21,346.354 L941.21,133.564" id="Shape" fill="#000000" fill-rule="nonzero"></path>
            <path d="M1003.06,239.48 C1003.06,174 1056.25,122 1122.75,122 C1150.291,122 1176.441,131.624 1196.85,148 C1201.598,151.376 1202.542,158.582 1198.292,163.873 C1194.464,168.206 1187.827,169.668 1182.607,165.813 C1165.978,152.334 1145.073,144.623 1122.752,144.623 C1068.612,144.623 1025.862,187.479 1025.862,239.483 C1025.862,292.417 1068.616,334.793 1122.752,334.793 C1145.073,334.793 1165.982,327.083 1182.607,314.083 C1187.827,310.228 1194.464,311.689 1198.292,316.023 C1202.543,321.314 1201.598,328.545 1195.906,332.878 C1176.443,348.272 1150.294,357.898 1122.756,357.898 C1056.266,357.898 1003.066,305.898 1003.066,239.478" id="Shape" fill="#000000" fill-rule="nonzero"></path>
            <text id="developer" fill="#D0011B" font-family="HelveticaNeue-LightItalic, Helvetica Neue" font-size="200" font-style="italic" font-weight="300">
                <tspan x="348" y="534">developer</tspan>
            </text>
            <text id="{}" font-family="Courier" font-size="288" font-weight="normal" letter-spacing="-40" fill="#D0011B">
                <tspan x="423" y="304">{</tspan>
                <tspan x="555.828125" y="304">}</tspan>
            </text>
        </g>
    </g>
</svg>