<?xml version="1.0" encoding="UTF-8" standalone="no"?>
<svg width="776px" height="776px" viewBox="0 0 776 776" version="1.1" xmlns="http://www.w3.org/2000/svg" xmlns:xlink="http://www.w3.org/1999/xlink" xmlns:sketch="http://www.bohemiancoding.com/sketch/ns">
    <!-- Generator: Sketch 3.4.2 (15857) - http://www.bohemiancoding.com/sketch -->
    <title>Artboard 1</title>
    <desc>Created with Sketch.</desc>
    <defs></defs>
    <g id="Page-1" stroke="none" stroke-width="1" fill="none" fill-rule="evenodd" sketch:type="MSPage">
        <g id="Artboard-1" sketch:type="MSArtboardGroup" fill="#333333">
            <g id="Shape-+-Shape-+-Shape" sketch:type="MSLayerGroup" transform="translate(138.000000, 138.000000)">
                <path d="M250,0 C111.929688,0 0,34.9765625 0,78.125 L0,140.625 C0,183.773438 111.929688,218.75 250,218.75 C388.070312,218.75 500,183.773438 500,140.625 L500,78.125 C500,34.9765625 388.070312,0 250,0 L250,0 Z" id="Shape" sketch:type="MSShapeGroup"></path>
                <path d="M250,265.625 C111.929688,265.625 0,230.648438 0,187.5 L0,281.25 C0,324.398438 111.929688,359.375 250,359.375 C388.070312,359.375 500,324.398438 500,281.25 L500,187.5 C500,230.648438 388.070312,265.625 250,265.625 L250,265.625 Z" id="Shape" sketch:type="MSShapeGroup"></path>
                <path d="M250,406.25 C111.929688,406.25 0,371.273437 0,328.125 L0,421.875 C0,465.023438 111.929688,500 250,500 C388.070312,500 500,465.023438 500,421.875 L500,328.125 C500,371.273437 388.070312,406.25 250,406.25 L250,406.25 Z" id="Shape" sketch:type="MSShapeGroup"></path>
            </g>
        </g>
    </g>
</svg>