<svg viewBox="0 0 280 280" xmlns="http://www.w3.org/2000/svg"><g fill="#545454" fill-rule="evenodd" transform="translate(41)"><g transform="translate(23 62)"><path d="m64.15 83.91l-51.973 55.16-11.676-16.627 50.03-52.2 13.623 13.669"/><path d="m118.42 23.06c0-1.922-.67-3.555-2.01-4.901-1.341-1.345-2.969-2.02-4.884-2.02-1.915 0-3.543.673-4.884 2.02-1.341 1.345-2.01 2.979-2.01 4.901 0 1.922.67 3.555 2.01 4.901 1.341 1.345 2.969 2.02 4.884 2.02 1.915 0 3.543-.673 4.884-2.02 1.341-1.345 2.01-2.979 2.01-4.901m16.09-20.756c0 11.964-1.808 22.306-5.423 31.03-3.615 8.72-9.685 17.381-18.208 25.981-3.879 3.844-8.547 8.07-14.01 12.684l-1.437 27.315c-.096.769-.479 1.393-1.149 1.874l-27.582 16.14c-.335.192-.718.288-1.149.288-.575 0-1.125-.216-1.652-.649l-4.597-4.612c-.623-.673-.814-1.441-.575-2.306l6.105-19.891-20.18-20.252-19.824 6.126c-.144.048-.359.072-.646.072-.67 0-1.221-.216-1.652-.649l-4.597-4.612c-.814-.913-.934-1.85-.359-2.811l16.09-27.675c.479-.673 1.101-1.057 1.868-1.153l27.22-1.441c4.597-5.477 8.811-10.162 12.642-14.05 9-8.985 17.574-15.183 25.714-18.594 8.14-3.411 18.46-5.117 30.958-5.117.67 0 1.245.228 1.724.685.479.456.718.997.718 1.622"/></g><path d="m99.15 271.93c59.27-34.27 99.15-98.31 99.15-171.67 0-26.535-5.218-51.852-14.684-74.981-25.326-11.733-53.55-18.281-83.3-18.281-30.885 0-60.12 7.06-86.18 19.646-9.116 22.759-14.13 47.602-14.13 73.62 0 73.36 39.876 137.4 99.15 171.67m78.73-167.57c0-21.727-4.154-42.46-11.691-61.4-20.16-9.607-42.632-14.969-66.32-14.969-24.59 0-47.867 5.778-68.62 16.09-7.258 18.636-11.251 38.978-11.251 60.28 0 60.06 31.748 112.51 78.937 140.57 47.19-28.06 78.937-80.5 78.937-140.57"/></g></svg>