<svg viewBox="0 0 280 280" xmlns="http://www.w3.org/2000/svg"><g fill="#545454" fill-rule="evenodd" transform="translate(41)"><path d="m172.1 198l-60.24-170.16h-24.96l-60 170.16h21.6l13.68-40.32h73.92l13.92 40.32h22.08m-42.96-60.48h-60.24l30-88.32 30.24 88.32"/><path d="m99.15 271.93c59.27-34.27 99.15-98.31 99.15-171.67 0-26.535-5.218-51.852-14.684-74.981-25.326-11.733-53.55-18.281-83.3-18.281-30.885 0-60.12 7.06-86.18 19.646-9.116 22.759-14.13 47.602-14.13 73.62 0 73.36 39.876 137.4 99.15 171.67m78.73-167.57c0-21.727-4.154-42.46-11.691-61.4-20.16-9.607-42.632-14.969-66.32-14.969-24.59 0-47.867 5.778-68.62 16.09-7.258 18.636-11.251 38.978-11.251 60.28 0 60.06 31.748 112.51 78.937 140.57 47.19-28.06 78.937-80.5 78.937-140.57"/></g></svg>