<?xml version="1.0" encoding="UTF-8" standalone="no"?>
<svg width="213px" height="118px" viewBox="0 0 213 118" version="1.1" xmlns="http://www.w3.org/2000/svg" xmlns:xlink="http://www.w3.org/1999/xlink" xmlns:sketch="http://www.bohemiancoding.com/sketch/ns">
    <!-- Generator: Sketch 3.4.2 (15857) - http://www.bohemiancoding.com/sketch -->
    <title>spinner</title>
    <desc>Created with Sketch.</desc>
    <defs></defs>
    <g id="Page-1" stroke="none" stroke-width="1" fill="none" fill-rule="evenodd" sketch:type="MSPage">
        <g id="spinner" sketch:type="MSLayerGroup">
            <path d="M213,118 C213,183.1696 165.318326,236 106.5,236 C47.6816741,236 0,183.1696 0,118 L22.0010984,118 C22.0003946,118.166564 22,118.333231 22,118.5 C22,170.138624 59.8319386,212 106.5,212 C153.168061,212 191,170.138624 191,118.5 C191,118.333231 190.999605,118.166564 190.998817,118 L213,118 Z" id="Rectangle-22" sketch:type="MSShapeGroup"></path>
            <path d="M213,118 C213,52.8303995 165.318326,0 106.5,0 C47.6816741,0 0,52.8303995 0,118 L22.0010984,118 C22.2444517,66.5914265 59.982655,25 106.5,25 C153.017345,25 190.755548,66.5914265 190.998817,118 L213,118 Z" id="Oval-159" fill="#000000" sketch:type="MSShapeGroup"></path>
        </g>
    </g>
</svg>