<?xml version="1.0" encoding="UTF-8" standalone="no"?>
<svg width="154px" height="207px" viewBox="0 0 154 207" version="1.1" xmlns="http://www.w3.org/2000/svg" xmlns:xlink="http://www.w3.org/1999/xlink" xmlns:sketch="http://www.bohemiancoding.com/sketch/ns">
    <!-- Generator: Sketch 3.4.2 (15857) - http://www.bohemiancoding.com/sketch -->
    <title>xp-shield</title>
    <desc>Created with Sketch.</desc>
    <defs></defs>
    <g id="Page-1" stroke="none" stroke-width="1" fill="none" fill-rule="evenodd" sketch:type="MSPage">
        <g id="xp-shield" sketch:type="MSLayerGroup">
            <g id="Page-1" sketch:type="MSShapeGroup">
                <g id="Group">
                    <path d="M76.8380937,206.167612 C122.772011,179.501552 153.676187,129.660677 153.676187,72.5760131 C153.676187,51.9267883 149.632424,32.2254021 142.296261,14.2258984 C122.66891,5.09561774 100.798449,0 77.7420713,0 C53.8061467,0 31.1483455,5.49180472 10.9515102,15.2883549 C3.88649113,32.9996058 0,52.3323221 0,72.5760131 C0,129.660677 30.904176,179.501552 76.8380937,206.167612 L76.8380937,206.167612 Z" id="Oval-1-Copy-5" fill="#FF4D39"></path>
                    <path d="M77.5590935,184.880148 C113.797368,163.510604 138.123083,123.981825 138.123083,78.751217 C138.123083,62.2816841 134.897833,46.5681339 129.046613,32.2119814 C113.392112,24.9297972 95.9485382,20.8656038 77.5590935,20.8656038 L77.5590935,184.880148 L77.5590935,184.880148 Z" id="Oval-1-Copy-6" fill="#F9796A"></path>
                    <g id="enonic-main-logo" transform="translate(39.775013, 34.473606)" fill="#FFFFFF">
                        <path d="M0,7.25708129 C0,3.24492339 2.84981607,0 6.40047577,0 C9.78788676,0 12.4772687,2.9500707 12.7460662,6.72603769 L12.7460662,6.84336128 C12.7460662,7.22620667 12.4505297,7.49172847 12.1015152,7.49172847 L1.2905093,7.49172847 C1.42420437,10.6486592 3.68435479,13.0383554 6.40047577,13.0383554 C8.14836296,13.0383554 9.76114774,12.03493 10.6477572,10.4124683 C10.8363376,10.0589538 11.2402375,10.000292 11.5090349,10.1762774 C11.8059787,10.4124683 11.9129348,10.8261883 11.7243544,11.1797028 C10.5942791,13.155679 8.63107253,14.4539571 6.40047577,14.4539571 C2.84981607,14.4539571 0,11.2090337 0,7.25708129 L0,7.25708129 L0,7.25708129 Z M1.37072634,6.10700141 L11.3486008,6.10700141 C10.917962,3.39157787 8.81965295,1.41560169 6.40047577,1.41560169 C3.92641323,1.41560169 1.85484324,3.3637907 1.37072634,6.10700141 L1.37072634,6.10700141 L1.37072634,6.10700141 Z" id="Fill-1"></path>
                        <path d="M49.1105827,0 C46.0020745,0 43.4865788,2.6606171 43.4865788,5.88274815 L43.4865788,13.7454904 C43.4865788,14.1585048 43.7971338,14.4539571 44.1638845,14.4539571 C44.5321141,14.4539571 44.8426691,14.1585048 44.8426691,13.7454904 L44.8426691,5.88274815 C44.8426691,3.42941168 46.7355761,1.41848016 49.1105827,1.41848016 C51.4841105,1.41848016 53.3770174,3.42941168 53.3770174,5.88274815 L53.3770174,13.7454904 C53.3770174,14.1585048 53.6875724,14.4539571 54.055802,14.4539571 C54.4225528,14.4539571 54.7331078,14.1585048 54.7331078,13.7454904 L54.7331078,5.88274815 C54.7331078,2.6606171 52.2190908,0 49.1105827,0" id="Fill-2"></path>
                        <path d="M20.6443283,0 C17.5358201,0 15.0203243,2.6606171 15.0203243,5.88274815 L15.0203243,13.7454904 C15.0203243,14.1585048 15.3308793,14.4539571 15.6976301,14.4539571 C16.0658596,14.4539571 16.3764147,14.1585048 16.3764147,13.7454904 L16.3764147,5.88274815 C16.3764147,3.42941168 18.2693215,1.41848016 20.6443283,1.41848016 C23.017856,1.41848016 24.910763,3.42941168 24.910763,5.88274815 L24.910763,13.7454904 C24.910763,14.1585048 25.221318,14.4539571 25.5895476,14.4539571 C25.9562982,14.4539571 26.2668533,14.1585048 26.2668533,13.7454904 L26.2668533,5.88274815 C26.2668533,2.6606171 23.7528363,0 20.6443283,0" id="Fill-3"></path>
                        <path d="M56.9824136,0.708572711 C56.9824136,0.294852696 57.2973164,0 57.6707012,0 C58.0710776,0 58.3859804,0.294852696 58.3859804,0.708572711 L58.3859804,13.7469281 C58.3859804,14.1297735 58.0710776,14.4539571 57.6707012,14.4539571 C57.2973164,14.4539571 56.9824136,14.1297735 56.9824136,13.7469281 L56.9824136,0.708572711" id="Fill-4"></path>
                        <path d="M60.7312565,7.1984195 C60.7312565,3.1862616 63.955128,0 67.9849671,0 C69.6541492,0 71.2389682,0.589705392 72.4757898,1.59313081 C72.7635279,1.7999908 72.8207742,2.24149799 72.5631659,2.56568158 C72.3311676,2.83120338 71.9289369,2.9207398 71.6125757,2.6845489 C70.6047394,1.85865261 69.337788,1.38627079 67.9849671,1.38627079 C64.7038495,1.38627079 62.1127005,4.0121579 62.1127005,7.1984195 C62.1127005,10.4417992 64.7038495,13.0383554 67.9849671,13.0383554 C69.337788,13.0383554 70.6047394,12.5659736 71.6125757,11.7694082 C71.9289369,11.5332173 72.3311676,11.6227537 72.5631659,11.8882755 C72.8207742,12.2124591 72.7635279,12.65551 72.4185435,12.9210318 C71.2389682,13.8642517 69.6541492,14.4539571 67.9849671,14.4539571 C63.955128,14.4539571 60.7312565,11.2676955 60.7312565,7.1984195" id="Fill-5"></path>
                        <path d="M29.8374991,6.08587665 C30.3022905,3.41245444 32.4091506,1.37973169 34.8642398,1.37973169 C37.3178722,1.37973169 39.4232752,3.41245444 39.8880666,6.08587665 L41.237273,6.08587665 C40.7549972,2.68725026 38.1090375,0 34.8642398,0 C31.6442118,0 28.9763966,2.68725026 28.4912067,6.08587665 L29.8374991,6.08587665" id="Fill-6"></path>
                        <path d="M39.8912162,8.3680804 C39.4459261,11.0367373 37.3329808,13.0557269 34.8649674,13.0557269 C32.395499,13.0557269 30.2810984,11.0367373 29.8372636,8.3680804 L28.4912067,8.3680804 C28.9539592,11.7594352 31.6300657,14.4509141 34.8649674,14.4509141 C38.1231525,14.4509141 40.778886,11.7594352 41.237273,8.3680804 L39.8912162,8.3680804" id="Fill-7"></path>
                    </g>
                    <path d="M24.1433872,128.336961 L39.0165175,94.5012297 C39.214168,94.0381773 39.3129919,93.6826246 39.3129919,93.4345608 C39.3129919,93.186497 39.214168,92.7978696 39.0165175,92.2686668 L25.8728209,62.8980615 C25.5434033,62.1373325 25.559874,61.4675703 25.9222334,60.8887548 C26.2845927,60.3099394 26.7951823,60.0205359 27.4540176,60.0205359 L38.9176927,60.0205359 C39.7412367,60.0205359 40.3835913,60.5331934 40.8447759,61.5585237 L49.2448828,82.5942275 C49.3766498,82.9249792 49.5742974,83.0903526 49.8378315,83.0903526 C50.1013656,83.0903526 50.2990131,82.9249792 50.4307803,82.5942275 L58.830887,61.5585237 C59.2920716,60.5331934 59.9344264,60.0205359 60.7579704,60.0205359 L72.2216455,60.0205359 C72.8804807,60.0205359 73.3993057,60.3099394 73.7781359,60.8887548 C74.1569662,61.4675703 74.1652015,62.1373325 73.802842,62.8980615 L60.6591456,92.3678917 C60.461495,92.8970945 60.3626712,93.2774534 60.3626712,93.5089796 C60.3626712,93.7405057 60.461495,94.1043271 60.6591456,94.6004547 L75.5322759,128.336961 C75.6969846,128.700788 75.7793378,129.048072 75.7793378,129.378824 C75.7793378,129.74265 75.680514,130.05686 75.4828634,130.321461 C75.1205041,130.883739 74.5934438,131.164874 73.9016669,131.164874 L61.9932802,131.164874 C60.906202,131.164874 60.1979649,130.652216 59.8685473,129.626886 L50.4307803,105.564819 C50.2990131,105.234068 50.1013656,105.068694 49.8378315,105.068694 C49.5742974,105.068694 49.3766498,105.234068 49.2448828,105.564819 L39.8071158,129.626886 C39.4776982,130.652216 38.7694609,131.164874 37.6823829,131.164874 L25.7739962,131.164874 C25.115161,131.164874 24.5881007,130.867202 24.1927995,130.271849 C23.9951491,129.974172 23.8963252,129.643425 23.8963252,129.279599 C23.8963252,128.981922 23.9786785,128.667713 24.1433872,128.336961 L24.1433872,128.336961 L24.1433872,128.336961 Z M83.8335578,129.130761 L83.8335578,62.0546489 C83.8335578,61.5254461 84.0394408,61.0541319 84.4512128,60.6406923 C84.8629847,60.2272527 85.3323978,60.0205359 85.859466,60.0205359 L108.144455,60.0205359 C111.04333,60.0205359 113.78569,60.5828054 116.371619,61.7073612 C118.957547,62.8319171 121.214023,64.3616208 123.141116,66.2965183 C125.068209,68.2314158 126.591743,70.4970312 127.711763,73.093432 C128.831783,75.689833 129.391784,78.4432997 129.391784,81.3539148 C129.391784,84.3306802 128.831783,87.1089529 127.711763,89.6888163 C126.591743,92.2686797 125.068209,94.5260263 123.141116,96.4609238 C121.214023,98.3958213 118.957547,99.9255251 116.371619,101.050081 C113.78569,102.174637 111.04333,102.736906 108.144455,102.736906 L99.0031625,102.736906 C98.3443273,102.736906 98.0149145,103.067653 98.0149145,103.729156 L98.0149145,129.130761 C98.0149145,129.659964 97.8090317,130.131278 97.3972597,130.544718 C96.9854878,130.958157 96.5160746,131.164874 95.9890065,131.164874 L85.859466,131.164874 C85.3323978,131.164874 84.8629847,130.958157 84.4512128,130.544718 C84.0394408,130.131278 83.8335578,129.659964 83.8335578,129.130761 L83.8335578,129.130761 L83.8335578,129.130761 Z M98.0149145,87.4562535 C98.0149145,88.1177569 98.3443273,88.4650409 99.0031625,88.498116 L108.144455,88.498116 C110.088019,88.498116 111.751553,87.8035479 113.135107,86.4143907 C114.518661,85.0252335 115.210427,83.3384251 115.210427,81.3539148 C115.210427,79.4024797 114.518661,77.7322086 113.135107,76.3430514 C111.751553,74.9538942 110.088019,74.259326 108.144455,74.259326 L99.0031625,74.259326 C98.3443273,74.259326 98.0149145,74.6066102 98.0149145,75.3011887 L98.0149145,87.4562535 L98.0149145,87.4562535 Z" id="XP" fill="#FFFFFF"></path>
                    <path d="M9.03977517,196.872783 C50.5774875,172.378186 78.4605624,127.06877 78.4605624,75.2236974 C78.4605624,56.3456816 74.7636567,38.3342025 68.0567614,21.8786252 C50.1129667,13.5315041 30.1184681,8.8729683 9.03977517,8.8729683 L9.03977517,196.872783 L9.03977517,196.872783 Z" id="Oval-1-Copy-7" opacity="0.150944496" fill="#FF4D39" transform="translate(43.750169, 102.872876) scale(-1, 1) translate(-43.750169, -102.872876) "></path>
                </g>
            </g>
        </g>
    </g>
</svg>